# xmcd
#
# Track frame offsets: 
#        150
#        10635
#        25675
#        45245
#        57153
#        73149
#        88887
#        101767
#        115308
#        131433
#        148190
#        164875
#        175069
#        186576
#        197526
#
# Disc length: 2803 seconds
#
# Revision: 0
# Processed by: cddbd v1.5.2PL0 Copyright (c) Steve Scherf et al.
# Submitted via: ExactAudioCopy v0.99pb4
#
DISCID=d40af10f
DTITLE=Dewey Murphy - Authentic Bluegrass Gospel
DYEAR=2007
DGENRE=Bluegrass Gospel
TTITLE0=Just Over In The Gloryland
TTITLE1=Oh, Come Angel Band
TTITLE2=The Redeened Are Coming Home
TTITLE3=I'll Be A Friend To Jesus
TTITLE4=Sing All The Glory Of Jesus
TTITLE5=Mother's Not Dead
TTITLE6=Home, Sweet Home
TTITLE7=The Boat Of Life
TTITLE8=Drifting Too Far From The Shore
TTITLE9=In The Sweet By And By
TTITLE10=Dad's Last Words
TTITLE11=Are You Washed In The Blood
TTITLE12=Lord, Hold My Hand
TTITLE13=Happy Home
TTITLE14=If Today Were The Day
EXTD=
EXTT0=
EXTT1=
EXTT2=
EXTT3=
EXTT4=
EXTT5=
EXTT6=
EXTT7=
EXTT8=
EXTT9=
EXTT10=
EXTT11=
EXTT12=
EXTT13=
EXTT14=
PLAYORDER=
